<?xml version="1.0" standalone="no"?><!DOCTYPE svg PUBLIC "-//W3C//DTD SVG 1.1//EN" "http://www.w3.org/Graphics/SVG/1.1/DTD/svg11.dtd"><svg t="1716861462402" class="icon" viewBox="0 0 1024 1024" version="1.1" xmlns="http://www.w3.org/2000/svg" p-id="4369" xmlns:xlink="http://www.w3.org/1999/xlink" width="200" height="200"><path d="M133.1968 0C88.192 0 51.2 36.8128 51.2 81.6128v860.7744C51.2 987.2128 88.192 1024 133.1968 1024H869.632c45.0304 0 81.9968-36.8128 81.9968-81.6128V324.8384L647.7312 0H133.1968z" fill="#0496FF" p-id="4370" data-spm-anchor-id="a313x.search_index.0.i3.7fc33a81UfMajz" class="selected"></path><path d="M232.8064 919.1168H193.5872c-7.8592 0-14.3872-6.1952-14.3872-13.6192v-122.624c0-7.424 6.528-12.3904 14.3872-12.3904h39.2192c49.664 0 81.0752 32.2048 81.0752 74.3168s-31.3856 74.3168-81.0752 74.3168z m0-132.5312H198.8096v115.2h33.9968c39.2192 0 61.44-26.0096 61.44-56.9856 0-32.2048-22.2208-58.2144-61.44-58.2144zM422.4 921.6c-47.0784 0-78.464-33.4336-78.464-76.8s31.3856-76.8 78.464-76.8c45.7728 0 77.1328 32.2048 77.1328 76.8 0 43.3664-31.36 76.8-77.1328 76.8z m0-137.4976c-35.3024 0-57.5232 26.0096-57.5232 60.6976s22.2208 59.4688 57.5232 59.4688c33.9968 0 57.5232-24.7808 57.5232-59.4688s-23.5264-60.6976-57.5232-60.6976z m240.5888 4.9664a9.216 9.216 0 0 1 2.6112 6.1952c0 4.9408-3.9168 8.6528-9.1648 8.6528a10.2912 10.2912 0 0 1-6.528-2.4832c-9.1392-11.136-24.832-17.3312-39.2192-17.3312-33.9968 0-60.16 24.7808-60.16 60.6976 0 34.688 26.1632 59.4688 60.16 59.4688 14.3872 0 28.7488-4.9664 39.2192-16.128a7.2448 7.2448 0 0 1 6.528-3.712c5.248 0 9.1648 4.9664 9.1648 9.9072 0 2.4832-1.3056 3.7376-2.6112 6.1952-11.776 12.3904-28.7744 21.0688-52.3008 21.0688-45.7728 0-81.0752-30.976-81.0752-76.8s35.328-76.8 81.0752-76.8c23.552 0 40.5248 8.6784 52.3008 21.0688zM808.96 921.6c-2.56 0-5.12-1.28-6.4-2.5088l-47.36-62.976-48.64 62.976a9.856 9.856 0 0 1-6.4 2.5088c-5.12 0-8.96-3.7888-8.96-8.8064 0-1.28 0-3.7888 1.28-5.0432L742.4 843.5456l-46.08-61.696c-1.28-1.28-2.56-2.5088-2.56-5.0432 0-3.7632 3.84-8.8064 8.96-8.8064 3.84 0 6.4 1.28 7.68 3.7888l44.8 57.9072 43.52-57.9072a7.0656 7.0656 0 0 1 6.4-3.7888c5.12 0 10.24 3.7888 10.24 8.8064 0 2.5344-1.28 3.7888-1.28 5.0432l-47.36 60.416 49.92 65.4848c1.28 1.28 2.56 3.7888 2.56 5.0432 0 5.0176-5.12 8.8064-10.24 8.8064z" fill="#FFFFFF" p-id="4371"></path><path d="M951.6032 319.872v15.5648h-202.1376s-101.0688-20.224-97.92-105.9072c0 0 3.1488 90.3424 94.7712 90.3424h205.312z" fill="#003CB3" p-id="4372"></path><path d="M651.4688 0v227.4304c0 24.9344 18.944 90.368 97.9456 90.368h202.1888L651.4688 0z" fill="#FFFFFF" opacity=".5" p-id="4373"></path></svg>