<?xml version="1.0" standalone="no"?><!DOCTYPE svg PUBLIC "-//W3C//DTD SVG 1.1//EN" "http://www.w3.org/Graphics/SVG/1.1/DTD/svg11.dtd"><svg t="1716861481961" class="icon" viewBox="0 0 1024 1024" version="1.1" xmlns="http://www.w3.org/2000/svg" p-id="6493" xmlns:xlink="http://www.w3.org/1999/xlink" width="200" height="200"><path d="M872 1024H152c-44 0-80-36-80-80V80C72 36 108 0 152 0h480l320 320v624c0 44-36 80-80 80z" fill="#02B34C" p-id="6494"></path><path d="M952 320h-240c-44 0-80-36-80-80V0l320 320z" fill="#67D194" p-id="6495"></path><path d="M306.8 864l-44.4-76.4L218 864H196l56-93.6-52.4-88.8h22.4l40.4 72 40.4-72h22.4l-52.4 88.8L329.2 864h-22.4zM365.6 864v-182.4h19.6v164.8h93.2v17.6H365.6zM565.6 865.6c-27.6 0-45.2-6.8-62.4-24l13.2-13.2c15.2 15.2 29.2 20 49.6 20 26.8 0 43.2-12.4 43.2-33.6 0.4-8.4-2.8-16.8-8.8-22.8-6-5.2-10.4-6.8-24-8.8l-21.2-3.2c-12.4-1.6-24-6-33.6-14-9.6-8.8-14.4-21.2-14-34 0-30.8 22.4-51.6 58.4-51.6 23.2 0 38.8 6 54.4 20l-12.4 12.4c-11.2-10.4-23.2-15.6-42.4-15.6-24.4 0-38.4 13.6-38.4 33.6-0.8 8 2.4 15.6 8 20.8 7.2 5.2 15.6 8.8 24.4 10l20 3.2c17.2 2.4 25.6 6 33.2 12.8 10.4 9.2 16 22.4 15.2 36 0.8 32.4-24.4 52-62.4 52zM764 864l-44-76.4-44.8 76.4h-22l56-93.6-52.4-88.8h22.4l40.4 72 40.4-72h22.4l-52.4 88.8 56 93.6H764z" fill="#FFFFFF" p-id="6496"></path></svg>